<?xml version="1.0" encoding="UTF-8" standalone="no"?>
<svg
   xmlns:dc="http://purl.org/dc/elements/1.1/"
   xmlns:cc="http://creativecommons.org/ns#"
   xmlns:rdf="http://www.w3.org/1999/02/22-rdf-syntax-ns#"
   xmlns:svg="http://www.w3.org/2000/svg"
   xmlns="http://www.w3.org/2000/svg"
   viewBox="0 0 521.25 212.5"
   height="212.5"
   width="521.25"
   xml:space="preserve"
   version="1.1"
   id="svg2"><metadata
     id="metadata8"><rdf:RDF><cc:Work
         rdf:about=""><dc:format>image/svg+xml</dc:format><dc:type
           rdf:resource="http://purl.org/dc/dcmitype/StillImage" /></cc:Work></rdf:RDF></metadata><defs
     id="defs6"><clipPath
       id="clipPath18"
       clipPathUnits="userSpaceOnUse"><path
         id="path20"
         d="M 0,0 423,0 423,180 0,180 0,0 Z" /></clipPath><clipPath
       id="clipPath50"
       clipPathUnits="userSpaceOnUse"><path
         id="path52"
         d="m 0,0 272.9,0 0,180 L 0,180 0,0 Z" /></clipPath><clipPath
       id="clipPath60"
       clipPathUnits="userSpaceOnUse"><path
         id="path62"
         d="m 137.17,30.48 73.89,0 0,125.49 -73.89,0 0,-125.49 z" /></clipPath><clipPath
       id="clipPath352"
       clipPathUnits="userSpaceOnUse"><path
         id="path354"
         d="m 272.9,0 150.1,0 0,180 -150.1,0 0,-180 z" /></clipPath><clipPath
       id="clipPath362"
       clipPathUnits="userSpaceOnUse"><path
         id="path364"
         d="m 294.5,30.48 123.02,0 0,127.95 -123.02,0 0,-127.95 z" /></clipPath></defs><g
     transform="matrix(1.25,0,0,-1.25,0,212.5)"
     id="g10"><g
       transform="translate(-1,-5)"
       id="g12"><g
         id="g14"><g
           clip-path="url(#clipPath18)"
           id="g16"><g
             id="g22" /><g
             id="g24" /><g
             id="g26" /><g
             id="g28" /><g
             id="g30" /><g
             id="g32" /><g
             id="g34" /><g
             id="g36" /><g
             id="g38" /><g
             id="g40" /><g
             id="g42" /><g
             id="g44" /><g
             id="g46"><g
               clip-path="url(#clipPath50)"
               id="g48" /></g><g
             id="g54" /><g
             id="g56"><g
               clip-path="url(#clipPath60)"
               id="g58"><path
                 id="path64"
                 style="fill:none;stroke:#ebebeb;stroke-width:0.52999997;stroke-linecap:butt;stroke-linejoin:round;stroke-miterlimit:10;stroke-dasharray:none;stroke-opacity:1"
                 d="m 150.13,30.48 0,125.49" /><path
                 id="path66"
                 style="fill:none;stroke:#ebebeb;stroke-width:0.52999997;stroke-linecap:butt;stroke-linejoin:round;stroke-miterlimit:10;stroke-dasharray:none;stroke-opacity:1"
                 d="m 169.32,30.48 0,125.49" /><path
                 id="path68"
                 style="fill:none;stroke:#ebebeb;stroke-width:0.52999997;stroke-linecap:butt;stroke-linejoin:round;stroke-miterlimit:10;stroke-dasharray:none;stroke-opacity:1"
                 d="m 188.51,30.48 0,125.49" /><path
                 id="path70"
                 style="fill:none;stroke:#ebebeb;stroke-width:0.52999997;stroke-linecap:butt;stroke-linejoin:round;stroke-miterlimit:10;stroke-dasharray:none;stroke-opacity:1"
                 d="m 207.7,30.48 0,125.49" /><path
                 id="path72"
                 style="fill:none;stroke:#ebebeb;stroke-width:1.07000005;stroke-linecap:butt;stroke-linejoin:round;stroke-miterlimit:10;stroke-dasharray:none;stroke-opacity:1"
                 d="m 137.17,40.94 73.89,0" /><path
                 id="path74"
                 style="fill:none;stroke:#ebebeb;stroke-width:1.07000005;stroke-linecap:butt;stroke-linejoin:round;stroke-miterlimit:10;stroke-dasharray:none;stroke-opacity:1"
                 d="m 137.17,58.37 73.89,0" /><path
                 id="path76"
                 style="fill:none;stroke:#ebebeb;stroke-width:1.07000005;stroke-linecap:butt;stroke-linejoin:round;stroke-miterlimit:10;stroke-dasharray:none;stroke-opacity:1"
                 d="m 137.17,75.8 73.89,0" /><path
                 id="path78"
                 style="fill:none;stroke:#ebebeb;stroke-width:1.07000005;stroke-linecap:butt;stroke-linejoin:round;stroke-miterlimit:10;stroke-dasharray:none;stroke-opacity:1"
                 d="m 137.17,93.22 73.89,0" /><path
                 id="path80"
                 style="fill:none;stroke:#ebebeb;stroke-width:1.07000005;stroke-linecap:butt;stroke-linejoin:round;stroke-miterlimit:10;stroke-dasharray:none;stroke-opacity:1"
                 d="m 137.17,110.65 73.89,0" /><path
                 id="path82"
                 style="fill:none;stroke:#ebebeb;stroke-width:1.07000005;stroke-linecap:butt;stroke-linejoin:round;stroke-miterlimit:10;stroke-dasharray:none;stroke-opacity:1"
                 d="m 137.17,128.08 73.89,0" /><path
                 id="path84"
                 style="fill:none;stroke:#ebebeb;stroke-width:1.07000005;stroke-linecap:butt;stroke-linejoin:round;stroke-miterlimit:10;stroke-dasharray:none;stroke-opacity:1"
                 d="m 137.17,145.51 73.89,0" /><path
                 id="path86"
                 style="fill:none;stroke:#ebebeb;stroke-width:1.07000005;stroke-linecap:butt;stroke-linejoin:round;stroke-miterlimit:10;stroke-dasharray:none;stroke-opacity:1"
                 d="m 140.53,30.48 0,125.49" /><path
                 id="path88"
                 style="fill:none;stroke:#ebebeb;stroke-width:1.07000005;stroke-linecap:butt;stroke-linejoin:round;stroke-miterlimit:10;stroke-dasharray:none;stroke-opacity:1"
                 d="m 159.72,30.48 0,125.49" /><path
                 id="path90"
                 style="fill:none;stroke:#ebebeb;stroke-width:1.07000005;stroke-linecap:butt;stroke-linejoin:round;stroke-miterlimit:10;stroke-dasharray:none;stroke-opacity:1"
                 d="m 178.91,30.48 0,125.49" /><path
                 id="path92"
                 style="fill:none;stroke:#ebebeb;stroke-width:1.07000005;stroke-linecap:butt;stroke-linejoin:round;stroke-miterlimit:10;stroke-dasharray:none;stroke-opacity:1"
                 d="m 198.11,30.48 0,125.49" /><path
                 id="path94"
                 style="fill:#e89242;fill-opacity:1;fill-rule:nonzero;stroke:none"
                 d="m 140.53,40.94 17.27,0 0,7.84 -17.27,0 0,-7.84 z" /><path
                 id="path96"
                 style="fill:#e762d7;fill-opacity:1;fill-rule:nonzero;stroke:none"
                 d="m 140.53,33.09 38.38,0 0,7.84 -38.38,0 0,-7.84 z" /><path
                 id="path98"
                 style="fill:#e89242;fill-opacity:1;fill-rule:nonzero;stroke:none"
                 d="m 140.53,58.37 11.51,0 0,7.84 -11.51,0 0,-7.84 z" /><path
                 id="path100"
                 style="fill:#e762d7;fill-opacity:1;fill-rule:nonzero;stroke:none"
                 d="m 140.53,50.52 11.51,0 0,7.84 -11.51,0 0,-7.84 z" /><path
                 id="path102"
                 style="fill:#e89242;fill-opacity:1;fill-rule:nonzero;stroke:none"
                 d="m 140.53,75.8 7.68,0 0,7.84 -7.68,0 0,-7.84 z" /><path
                 id="path104"
                 style="fill:#e762d7;fill-opacity:1;fill-rule:nonzero;stroke:none"
                 d="m 140.53,67.95 15.35,0 0,7.84 -15.35,0 0,-7.84 z" /><path
                 id="path106"
                 style="fill:#e762d7;fill-opacity:1;fill-rule:nonzero;stroke:none"
                 d="m 140.53,85.38 23.03,0 0,15.69 -23.03,0 0,-15.69 z" /><path
                 id="path108"
                 style="fill:#e89242;fill-opacity:1;fill-rule:nonzero;stroke:none"
                 d="m 140.53,110.65 1.92,0 0,7.84 -1.92,0 0,-7.84 z" /><path
                 id="path110"
                 style="fill:#e762d7;fill-opacity:1;fill-rule:nonzero;stroke:none"
                 d="m 140.53,102.81 17.27,0 0,7.84 -17.27,0 0,-7.84 z" /><path
                 id="path112"
                 style="fill:#e89242;fill-opacity:1;fill-rule:nonzero;stroke:none"
                 d="m 140.53,128.08 21.11,0 0,7.84 -21.11,0 0,-7.84 z" /><path
                 id="path114"
                 style="fill:#e762d7;fill-opacity:1;fill-rule:nonzero;stroke:none"
                 d="m 140.53,120.24 47.98,0 0,7.84 -47.98,0 0,-7.84 z" /><path
                 id="path116"
                 style="fill:#e89242;fill-opacity:1;fill-rule:nonzero;stroke:none"
                 d="m 140.53,145.51 38.38,0 0,7.84 -38.38,0 0,-7.84 z" /><path
                 id="path118"
                 style="fill:#e762d7;fill-opacity:1;fill-rule:nonzero;stroke:none"
                 d="m 140.53,137.67 61.41,0 0,7.84 -61.41,0 0,-7.84 z" /></g></g><g
             id="g120" /><g
             id="g122" /><g
             id="g124" /><g
             id="g126" /><g
             id="g128" /><g
             id="g130" /><g
             id="g132" /><g
             id="g134" /><g
             id="g136" /><g
             id="g138" /><g
             id="g140" /><g
             id="g142" /><g
             id="g144" /><g
             id="g146" /><g
             id="g148" /><g
             id="g150"><text
               id="text152"
               style="font-variant:normal;font-weight:normal;font-size:9px;font-family:Helvetica;-inkscape-font-specification:Helvetica;writing-mode:lr-tb;fill:#4d4d4d;fill-opacity:1;fill-rule:nonzero;stroke:none"
               transform="matrix(1,0,0,-1,93.23,37.71)"><tspan
                 id="tspan154"
                 y="0"
                 x="0 6.4980001 11.232 15.507 20.511 23.507999 26.01 31.014">Never 0%</tspan></text>
<text
               id="text156"
               style="font-variant:normal;font-weight:normal;font-size:9px;font-family:Helvetica;-inkscape-font-specification:Helvetica;writing-mode:lr-tb;fill:#4d4d4d;fill-opacity:1;fill-rule:nonzero;stroke:none"
               transform="matrix(1,0,0,-1,75.47,55.13)"><tspan
                 id="tspan158"
                 y="0"
                 x="0 6.4980001 11.502 14.499 19.503 21.500999 26.000999 28.503 33.507 38.763 43.766998 48.771">Rarely 1−15%</tspan></text>
<text
               id="text160"
               style="font-variant:normal;font-weight:normal;font-size:9px;font-family:Helvetica;-inkscape-font-specification:Helvetica;writing-mode:lr-tb;fill:#4d4d4d;fill-opacity:1;fill-rule:nonzero;stroke:none"
               transform="matrix(1,0,0,-1,45.45,72.56)"><tspan
                 id="tspan162"
                 y="0"
                 x="0 7.0019999 11.502 16.002001 21.006001 25.506001 27.504 32.507999 37.512001 42.515999 44.514 46.512001 51.012001 53.514 58.518002 63.521999 68.778 73.781998 78.786003">Occasionally 15−40%</tspan></text>
<text
               id="text164"
               style="font-variant:normal;font-weight:normal;font-size:9px;font-family:Helvetica;-inkscape-font-specification:Helvetica;writing-mode:lr-tb;fill:#4d4d4d;fill-opacity:1;fill-rule:nonzero;stroke:none"
               transform="matrix(1,0,0,-1,21.42,89.99)"><tspan
                 id="tspan166"
                 y="0"
                 x="0 6.0029998 11.007 16.011 21.014999 23.517 26.018999 31.023001 36.027 38.025002 40.527 43.028999 45.530998 50.535 55.539001 58.041 60.542999 62.541 70.038002 75.042 77.543999 82.547997 87.552002 92.807999 97.811996 102.816">About half the time 40−60%</tspan></text>
<text
               id="text168"
               style="font-variant:normal;font-weight:normal;font-size:9px;font-family:Helvetica;-inkscape-font-specification:Helvetica;writing-mode:lr-tb;fill:#4d4d4d;fill-opacity:1;fill-rule:nonzero;stroke:none"
               transform="matrix(1,0,0,-1,66.96,107.42)"><tspan
                 id="tspan170"
                 y="0"
                 x="0 6.4980001 10.998 16.002001 21.006001 23.004 25.002001 29.502001 32.004002 37.007999 42.012001 47.268002 52.271999 57.276001">Usually 60−85%</tspan></text>
<text
               id="text172"
               style="font-variant:normal;font-weight:normal;font-size:9px;font-family:Helvetica;-inkscape-font-specification:Helvetica;writing-mode:lr-tb;fill:#4d4d4d;fill-opacity:1;fill-rule:nonzero;stroke:none"
               transform="matrix(1,0,0,-1,32.44,124.85)"><tspan
                 id="tspan174"
                 y="0"
                 x="0 7.4970002 12.501 17.000999 19.503 22.004999 27.009001 29.511 32.013 34.514999 39.519001 44.522999 47.025002 49.527 51.525002 59.021999 64.026001 66.528 71.531998 76.536003 81.792 86.795998 91.800003">Most of the time 85−99%</tspan></text>
<text
               id="text176"
               style="font-variant:normal;font-weight:normal;font-size:9px;font-family:Helvetica;-inkscape-font-specification:Helvetica;writing-mode:lr-tb;fill:#4d4d4d;fill-opacity:1;fill-rule:nonzero;stroke:none"
               transform="matrix(1,0,0,-1,38.16,142.28)"><tspan
                 id="tspan178"
                 y="0"
                 x="0 6.0029998 10.278 15.282 18.549 23.049 25.551001 30.051001 32.049 37.053001 42.056999 44.055 49.058998 51.561001 54.063 56.061001 63.557999 68.561996 71.064003 76.068001 81.071999 86.075996">Every single time 100%</tspan></text>
</g><g
             id="g180" /><g
             id="g182" /><g
             id="g184" /><g
             id="g186" /><g
             id="g188" /><g
             id="g190" /><g
             id="g192" /><g
             id="g194" /><g
             id="g196" /><g
             id="g198" /><g
             id="g200" /><g
             id="g202" /><g
             id="g204" /><g
             id="g206"><text
               id="text208"
               style="font-variant:normal;font-weight:normal;font-size:9px;font-family:Helvetica;-inkscape-font-specification:Helvetica;writing-mode:lr-tb;fill:#4d4d4d;fill-opacity:1;fill-rule:nonzero;stroke:none"
               transform="matrix(1,0,0,-1,138.03,19.08)"><tspan
                 id="tspan210"
                 y="0"
                 x="0">0</tspan></text>
<text
               id="text212"
               style="font-variant:normal;font-weight:normal;font-size:9px;font-family:Helvetica;-inkscape-font-specification:Helvetica;writing-mode:lr-tb;fill:#4d4d4d;fill-opacity:1;fill-rule:nonzero;stroke:none"
               transform="matrix(1,0,0,-1,154.72,19.08)"><tspan
                 id="tspan214"
                 y="0"
                 x="0 5.0040002">10</tspan></text>
<text
               id="text216"
               style="font-variant:normal;font-weight:normal;font-size:9px;font-family:Helvetica;-inkscape-font-specification:Helvetica;writing-mode:lr-tb;fill:#4d4d4d;fill-opacity:1;fill-rule:nonzero;stroke:none"
               transform="matrix(1,0,0,-1,173.91,19.08)"><tspan
                 id="tspan218"
                 y="0"
                 x="0 5.0040002">20</tspan></text>
<text
               id="text220"
               style="font-variant:normal;font-weight:normal;font-size:9px;font-family:Helvetica;-inkscape-font-specification:Helvetica;writing-mode:lr-tb;fill:#4d4d4d;fill-opacity:1;fill-rule:nonzero;stroke:none"
               transform="matrix(1,0,0,-1,193.1,19.08)"><tspan
                 id="tspan222"
                 y="0"
                 x="0 5.0040002">30</tspan></text>
</g><g
             id="g224" /><g
             id="g226" /><g
             id="g228" /><g
             id="g230" /><g
             id="g232" /><g
             id="g234"><text
               id="text236"
               style="font-variant:normal;font-weight:normal;font-size:11px;font-family:Helvetica;-inkscape-font-specification:Helvetica;writing-mode:lr-tb;fill:#000000;fill-opacity:1;fill-rule:nonzero;stroke:none"
               transform="matrix(1,0,0,-1,159.44,5.71)"><tspan
                 id="tspan238"
                 y="0"
                 x="0 7.9419999 14.058 20.174 26.290001">Count</tspan></text>
</g><g
             id="g240" /><g
             id="g242"><text
               id="text244"
               style="font-variant:normal;font-weight:normal;font-size:11px;font-family:Helvetica;-inkscape-font-specification:Helvetica;writing-mode:lr-tb;fill:#000000;fill-opacity:1;fill-rule:nonzero;stroke:none"
               transform="matrix(0,1,1,0,13.38,18.72)"><tspan
                 id="tspan246"
                 y="0"
                 x="0 6.7210002 10.384 16.5 22.615999 28.732 34.848 40.964001 46.464001 51.964001 55.021999 61.138 64.195999 67.253998 72.753998 78.870003 81.598 87.713997 90.772003 96.272003 102.058 107.558 110.616 116.732 120.285 126.401 131.901 134.959 137.401 142.901">Frequency of safe sex practice</tspan></text>
</g><g
             id="g248" /><g
             id="g250" /><g
             id="g252" /><g
             id="g254" /><g
             id="g256" /><g
             id="g258" /><g
             id="g260" /><g
             id="g262" /><g
             id="g264" /><g
             id="g266"><text
               id="text268"
               style="font-variant:normal;font-weight:normal;font-size:11px;font-family:Helvetica;-inkscape-font-specification:Helvetica;writing-mode:lr-tb;fill:#000000;fill-opacity:1;fill-rule:nonzero;stroke:none"
               transform="matrix(1,0,0,-1,228.07,108.72)"><tspan
                 id="tspan270"
                 y="0"
                 x="0 4.9060001 11.627 19.569">LTR?</tspan></text>
</g><g
             id="g272" /><g
             id="g274" /><g
             id="g276" /><g
             id="g278"><path
               id="path280"
               style="fill:#e762d7;fill-opacity:1;fill-rule:nonzero;stroke:none"
               d="m 228.78,87.82 15.86,0 0,15.86 -15.86,0 0,-15.86 z" /></g><g
             id="g282" /><g
             id="g284" /><g
             id="g286" /><g
             id="g288"><path
               id="path290"
               style="fill:#e89242;fill-opacity:1;fill-rule:nonzero;stroke:none"
               d="m 228.78,70.54 15.86,0 0,15.86 -15.86,0 0,-15.86 z" /></g><g
             id="g292" /><g
             id="g294"><text
               id="text296"
               style="font-variant:normal;font-weight:normal;font-size:9px;font-family:Helvetica;-inkscape-font-specification:Helvetica;writing-mode:lr-tb;fill:#000000;fill-opacity:1;fill-rule:nonzero;stroke:none"
               transform="matrix(1,0,0,-1,247.51,92.52)"><tspan
                 id="tspan298"
                 y="0"
                 x="0 6.4980001">No</tspan></text>
</g><g
             id="g300" /><g
             id="g302"><text
               id="text304"
               style="font-variant:normal;font-weight:normal;font-size:9px;font-family:Helvetica;-inkscape-font-specification:Helvetica;writing-mode:lr-tb;fill:#000000;fill-opacity:1;fill-rule:nonzero;stroke:none"
               transform="matrix(1,0,0,-1,247.51,75.24)"><tspan
                 id="tspan306"
                 y="0"
                 x="0 4.743 9.7469997">Yes</tspan></text>
</g><g
             id="g308" /><g
             id="g310" /><g
             id="g312" /><g
             id="g314" /><g
             id="g316" /><g
             id="g318"><text
               id="text320"
               style="font-variant:normal;font-weight:normal;font-size:13px;font-family:Helvetica;-inkscape-font-specification:Helvetica;writing-mode:lr-tb;fill:#000000;fill-opacity:1;fill-rule:nonzero;stroke:none"
               transform="matrix(1,0,0,-1,137.17,165.19)"><tspan
                 id="tspan322"
                 y="0"
                 x="0 9.3859997 16.614 19.5 22.386 29.614 36.841999 44.07 47.683998 54.183998 57.798 65.026001 72.253998 79.482002 86.709999 90.323997">College students</tspan></text>
</g><g
             id="g324" /><g
             id="g326" /><g
             id="g328" /><g
             id="g330" /><g
             id="g332" /><g
             id="g334" /><g
             id="g336" /><g
             id="g338" /><g
             id="g340" /><g
             id="g342" /><g
             id="g344" /><g
             id="g346" /><g
             id="g348"><g
               clip-path="url(#clipPath352)"
               id="g350" /></g><g
             id="g356" /><g
             id="g358"><g
               clip-path="url(#clipPath362)"
               id="g360"><path
                 id="path366"
                 style="fill:none;stroke:#ebebeb;stroke-width:0.52999997;stroke-linecap:butt;stroke-linejoin:round;stroke-miterlimit:10;stroke-dasharray:none;stroke-opacity:1"
                 d="m 316.07,30.48 0,127.95" /><path
                 id="path368"
                 style="fill:none;stroke:#ebebeb;stroke-width:0.52999997;stroke-linecap:butt;stroke-linejoin:round;stroke-miterlimit:10;stroke-dasharray:none;stroke-opacity:1"
                 d="m 348.02,30.48 0,127.95" /><path
                 id="path370"
                 style="fill:none;stroke:#ebebeb;stroke-width:0.52999997;stroke-linecap:butt;stroke-linejoin:round;stroke-miterlimit:10;stroke-dasharray:none;stroke-opacity:1"
                 d="m 379.98,30.48 0,127.95" /><path
                 id="path372"
                 style="fill:none;stroke:#ebebeb;stroke-width:0.52999997;stroke-linecap:butt;stroke-linejoin:round;stroke-miterlimit:10;stroke-dasharray:none;stroke-opacity:1"
                 d="m 411.93,30.48 0,127.95" /><path
                 id="path374"
                 style="fill:none;stroke:#ebebeb;stroke-width:1.07000005;stroke-linecap:butt;stroke-linejoin:round;stroke-miterlimit:10;stroke-dasharray:none;stroke-opacity:1"
                 d="m 294.5,41.14 123.02,0" /><path
                 id="path376"
                 style="fill:none;stroke:#ebebeb;stroke-width:1.07000005;stroke-linecap:butt;stroke-linejoin:round;stroke-miterlimit:10;stroke-dasharray:none;stroke-opacity:1"
                 d="m 294.5,58.91 123.02,0" /><path
                 id="path378"
                 style="fill:none;stroke:#ebebeb;stroke-width:1.07000005;stroke-linecap:butt;stroke-linejoin:round;stroke-miterlimit:10;stroke-dasharray:none;stroke-opacity:1"
                 d="m 294.5,76.68 123.02,0" /><path
                 id="path380"
                 style="fill:none;stroke:#ebebeb;stroke-width:1.07000005;stroke-linecap:butt;stroke-linejoin:round;stroke-miterlimit:10;stroke-dasharray:none;stroke-opacity:1"
                 d="m 294.5,94.45 123.02,0" /><path
                 id="path382"
                 style="fill:none;stroke:#ebebeb;stroke-width:1.07000005;stroke-linecap:butt;stroke-linejoin:round;stroke-miterlimit:10;stroke-dasharray:none;stroke-opacity:1"
                 d="m 294.5,112.23 123.02,0" /><path
                 id="path384"
                 style="fill:none;stroke:#ebebeb;stroke-width:1.07000005;stroke-linecap:butt;stroke-linejoin:round;stroke-miterlimit:10;stroke-dasharray:none;stroke-opacity:1"
                 d="m 294.5,130 123.02,0" /><path
                 id="path386"
                 style="fill:none;stroke:#ebebeb;stroke-width:1.07000005;stroke-linecap:butt;stroke-linejoin:round;stroke-miterlimit:10;stroke-dasharray:none;stroke-opacity:1"
                 d="m 294.5,147.77 123.02,0" /><path
                 id="path388"
                 style="fill:none;stroke:#ebebeb;stroke-width:1.07000005;stroke-linecap:butt;stroke-linejoin:round;stroke-miterlimit:10;stroke-dasharray:none;stroke-opacity:1"
                 d="m 300.09,30.48 0,127.95" /><path
                 id="path390"
                 style="fill:none;stroke:#ebebeb;stroke-width:1.07000005;stroke-linecap:butt;stroke-linejoin:round;stroke-miterlimit:10;stroke-dasharray:none;stroke-opacity:1"
                 d="m 332.05,30.48 0,127.95" /><path
                 id="path392"
                 style="fill:none;stroke:#ebebeb;stroke-width:1.07000005;stroke-linecap:butt;stroke-linejoin:round;stroke-miterlimit:10;stroke-dasharray:none;stroke-opacity:1"
                 d="m 364,30.48 0,127.95" /><path
                 id="path394"
                 style="fill:none;stroke:#ebebeb;stroke-width:1.07000005;stroke-linecap:butt;stroke-linejoin:round;stroke-miterlimit:10;stroke-dasharray:none;stroke-opacity:1"
                 d="m 395.95,30.48 0,127.95" /><path
                 id="path396"
                 style="fill:#82491e;fill-opacity:1;fill-rule:nonzero;stroke:none"
                 d="m 300.09,36.7 3.2,0 0,8.89 -3.2,0 0,-8.89 z" /><path
                 id="path398"
                 style="fill:#82491e;fill-opacity:1;fill-rule:nonzero;stroke:none"
                 d="m 300.09,72.24 3.2,0 0,8.89 -3.2,0 0,-8.89 z" /><path
                 id="path400"
                 style="fill:#82491e;fill-opacity:1;fill-rule:nonzero;stroke:none"
                 d="m 300.09,107.78 6.39,0 0,8.89 -6.39,0 0,-8.89 z" /><path
                 id="path402"
                 style="fill:#82491e;fill-opacity:1;fill-rule:nonzero;stroke:none"
                 d="m 300.09,125.55 12.78,0 0,8.89 -12.78,0 0,-8.89 z" /><path
                 id="path404"
                 style="fill:#82491e;fill-opacity:1;fill-rule:nonzero;stroke:none"
                 d="m 300.09,143.33 41.54,0 0,8.89 -41.54,0 0,-8.89 z" /></g></g><g
             id="g406" /><g
             id="g408" /><g
             id="g410" /><g
             id="g412" /><g
             id="g414" /><g
             id="g416" /><g
             id="g418" /><g
             id="g420" /><g
             id="g422" /><g
             id="g424" /><g
             id="g426" /><g
             id="g428" /><g
             id="g430" /><g
             id="g432" /><g
             id="g434" /><g
             id="g436" /><g
             id="g438" /><g
             id="g440" /><g
             id="g442" /><g
             id="g444" /><g
             id="g446" /><g
             id="g448" /><g
             id="g450" /><g
             id="g452" /><g
             id="g454" /><g
             id="g456" /><g
             id="g458"><text
               id="text460"
               style="font-variant:normal;font-weight:normal;font-size:9px;font-family:Helvetica;-inkscape-font-specification:Helvetica;writing-mode:lr-tb;fill:#4d4d4d;fill-opacity:1;fill-rule:nonzero;stroke:none"
               transform="matrix(1,0,0,-1,297.59,19.08)"><tspan
                 id="tspan462"
                 y="0"
                 x="0">0</tspan></text>
<text
               id="text464"
               style="font-variant:normal;font-weight:normal;font-size:9px;font-family:Helvetica;-inkscape-font-specification:Helvetica;writing-mode:lr-tb;fill:#4d4d4d;fill-opacity:1;fill-rule:nonzero;stroke:none"
               transform="matrix(1,0,0,-1,327.04,19.08)"><tspan
                 id="tspan466"
                 y="0"
                 x="0 5.0040002">10</tspan></text>
<text
               id="text468"
               style="font-variant:normal;font-weight:normal;font-size:9px;font-family:Helvetica;-inkscape-font-specification:Helvetica;writing-mode:lr-tb;fill:#4d4d4d;fill-opacity:1;fill-rule:nonzero;stroke:none"
               transform="matrix(1,0,0,-1,358.99,19.08)"><tspan
                 id="tspan470"
                 y="0"
                 x="0 5.0040002">20</tspan></text>
<text
               id="text472"
               style="font-variant:normal;font-weight:normal;font-size:9px;font-family:Helvetica;-inkscape-font-specification:Helvetica;writing-mode:lr-tb;fill:#4d4d4d;fill-opacity:1;fill-rule:nonzero;stroke:none"
               transform="matrix(1,0,0,-1,390.95,19.08)"><tspan
                 id="tspan474"
                 y="0"
                 x="0 5.0040002">30</tspan></text>
</g><g
             id="g476" /><g
             id="g478" /><g
             id="g480" /><g
             id="g482" /><g
             id="g484" /><g
             id="g486"><text
               id="text488"
               style="font-variant:normal;font-weight:normal;font-size:11px;font-family:Helvetica;-inkscape-font-specification:Helvetica;writing-mode:lr-tb;fill:#000000;fill-opacity:1;fill-rule:nonzero;stroke:none"
               transform="matrix(1,0,0,-1,341.34,5.71)"><tspan
                 id="tspan490"
                 y="0"
                 x="0 7.9419999 14.058 20.174 26.290001">Count</tspan></text>
</g><g
             id="g492" /><g
             id="g494" /><g
             id="g496" /><g
             id="g498" /><g
             id="g500" /><g
             id="g502" /><g
             id="g504" /><g
             id="g506"><text
               id="text508"
               style="font-variant:normal;font-weight:normal;font-size:13px;font-family:Helvetica;-inkscape-font-specification:Helvetica;writing-mode:lr-tb;fill:#000000;fill-opacity:1;fill-rule:nonzero;stroke:none"
               transform="matrix(1,0,0,-1,294.5,165.19)"><tspan
                 id="tspan510"
                 y="0"
                 x="0 8.6709995 15.899 23.127001 26.013 33.241001 39.741001 46.241001 53.469002 60.696999 64.310997">Adolescents</tspan></text>
</g><g
             id="g512" /><g
             id="g514" /><g
             id="g516" /><g
             id="g518" /><g
             id="g520" /></g></g></g></g></svg>